# xmcd
#
# Track frame offsets:
#	150
#	14425
#	29215
#	43142
#	60285
#	74595
#	88525
#	105220
#	123317
#	139955
#	159247
#	172905
#	187825
#	197677
#	212155
#	226087
#	242325
#
# Disc length: 3507
#
# Revision: 1
# Processed by: cddbd v1.5.1PL0 Copyright (c) Steve Scherf et al.
# Submitted via: VisiTrax 2.9.5.180 - For more info visit www.synapsa.com
# Normalized: r0:DSETVAR1
#
DISCID=db0db111
DTITLE=Various Artist - CDX 157 March 1997
DYEAR=1997
DGENRE=
TTITLE0=Vince Gill - A little more love
TTITLE1=Little Texas - Bad for us
TTITLE2=Perfect Stranger - Fire when ready
TTITLE3=Ray Vega - I can dream
TTITLE4=Anita Cochran - I could love a man like that
TTITLE5=Mike Kalor - Iøm scatterd
TTITLE6=Billy Dean - In the name of love
TTITLE7=Kris Tyler - Keeping your kisses
TTITLE8=Ty Herndon - Loved too much
TTITLE9=Prairie Oyster - One way track
TTITLE10=Regina, Regina - Right plan wrong man
TTITLE11=JOhn and Audrey Wiggins - Somewhere in love
TTITLE12=George JOnes - Star spangled banner
TTITLE13=Jim Auston - The buckle
TTITLE14=James Bonamy - The swing
TTITLE15=Jess McEntyre - The more I'm around some people..the more I love my dog
TTITLE16=Jess McEntyre - The more I'm around some people..the more I love my dog
EXTD=
EXTT0=
EXTT1=
EXTT2=
EXTT3=
EXTT4=
EXTT5=
EXTT6=
EXTT7=
EXTT8=
EXTT9=
EXTT10=
EXTT11=
EXTT12=
EXTT13=
EXTT14=
EXTT15=
EXTT16=
PLAYORDER=
